<?xml version="1.0" encoding="utf-8"?>
<!-- Generator: Adobe Illustrator 24.3.0, SVG Export Plug-In . SVG Version: 6.00 Build 0)  -->
<svg version="1.1" id="Layer_1" xmlns="http://www.w3.org/2000/svg" xmlns:xlink="http://www.w3.org/1999/xlink" x="0px" y="0px"
	 width="109px" height="95px" viewBox="0 0 109 95" style="enable-background:new 0 0 109 95;" xml:space="preserve">
<style type="text/css">
	.st0{opacity:0.66;}
	.st1{fill:#FFFFFF;}
	.st2{fill:none;stroke:#615DED;}
	.st3{fill:#615DED;}
</style>
<g>
	<g transform="matrix(1, 0, 0, 1, 0, 0)" class="st0">
		<g id="Rectangle_531-2_1_" transform="translate(6 6)">
			<path class="st1" d="M80.5,85.5h-64c-9.9,0-18-8.1-18-18v-52c0-9.9,8.1-18,18-18h64c9.9,0,18,8.1,18,18v52
				C98.5,77.4,90.4,85.5,80.5,85.5z"/>
			<path class="st2" d="M80.5,85h-64C6.8,85-1,77.2-1,67.5v-52C-1,5.8,6.8-2,16.5-2h64C90.2-2,98,5.8,98,15.5v52
				C98,77.2,90.2,85,80.5,85z"/>
		</g>
	</g>
	<path id="Polygon_2_1_" class="st3" d="M54.5,68L32,27h45L54.5,68z"/>
</g>
</svg>
