<?xml version="1.0" encoding="utf-8"?>
<!-- Generator: Adobe Illustrator 24.3.0, SVG Export Plug-In . SVG Version: 6.00 Build 0)  -->
<svg version="1.1" id="Layer_1" xmlns="http://www.w3.org/2000/svg" xmlns:xlink="http://www.w3.org/1999/xlink" x="0px" y="0px"
	 width="835.6px" height="165.6px" viewBox="0 0 835.6 165.6" style="enable-background:new 0 0 835.6 165.6;" xml:space="preserve"
	>
<style type="text/css">
	.st0{opacity:0.9;}
	.st1{enable-background:new    ;}
	.st2{fill:#AEAEFF;}
	.st3{fill:#4B4BBC;}
</style>
<g id="hero_image_logo" class="st0">
	<g id="DESIGN" transform="translate(654.094 253.425)">
		<g class="st1">
			<path class="st2" d="M-333.3-118.8h11.6c8.7,0,13.7,6.7,13.7,15.4s-5,15.3-13.7,15.3h-11.6V-118.8z M-321.7-90.9
				c7,0,10.8-5.4,10.8-12.5c0-7.1-3.8-12.6-10.8-12.6h-8.7v25.1H-321.7z"/>
			<path class="st2" d="M-274.1-90.9v2.8h-18v-30.7h17.5v2.8h-14.6v11.5h12.7v2.8h-12.7v10.9h15.1V-90.9z"/>
			<path class="st2" d="M-260.5-96.4h2.9c0.3,3,3.1,5.9,7.4,5.9c4.9,0,7.3-3.1,7.3-6c0-3.3-3-4.9-6-5.7l-4.1-1
				c-6.3-1.5-7.3-5.2-7.3-7.7c0-5.1,4.7-8.4,9.7-8.4c5.2,0,9.3,3.2,9.5,8.3h-2.9c-0.2-3.4-3-5.6-6.7-5.6c-3.5,0-6.7,2.2-6.7,5.6
				c0,1.4,0.4,3.9,5,4.9l4.1,1c4.8,1.2,8.2,3.8,8.2,8.3c0,4.3-3.6,8.9-10.3,8.9C-256.2-87.7-260.2-91.9-260.5-96.4z"/>
			<path class="st2" d="M-224.3-118.8h2.9v30.7h-2.9V-118.8z"/>
			<path class="st2" d="M-205.6-103.4c0-8.7,6.8-15.8,15.5-15.8c3.7,0,7.2,1.4,9.7,3.6l-2,2c-2.1-1.7-4.8-2.8-7.8-2.8
				c-7.1,0-12.5,5.9-12.5,13s5.5,12.9,12.5,12.9c5.8,0,10.3-3.3,11.1-9.3v-0.7h-9.2v-2.6h12.4c-0.1,10.4-6,15.3-14.3,15.3
				C-198.8-87.7-205.6-94.7-205.6-103.4z"/>
			<path class="st2" d="M-139.2-118.8v30.7h-3l-15.7-25.5v25.5h-2.9v-30.7h3.1l15.7,25.5v-25.5H-139.2z"/>
		</g>
	</g>
	<g id="Group_5">
		<path id="Path_204" class="st3" d="M3.1,112.4L0.6,66.6h2.3l0.5,1C7.3,96.3,21,110.9,44,110.9c14.8,0,24-5.9,24-15.4
			c0-11.7-14.2-17.6-29.3-23.7C20.6,64.4,0,56,0,35.2C0,13,22.7,1.3,45.2,1.3c6.7,0.1,13.3,1.1,19.7,3c3.2,1,6.6,1.7,10,1.8
			c3.1,0,4.3-1.6,5.7-3.5l2-2.6l0.6,2.6l2.1,39H83l-0.5-1C80.6,27,73.5,4.1,46.9,4.1c-13,0-20.7,5.3-20.7,14.1
			C26.2,30,40.1,35.3,54.9,41C73,47.9,93.4,55.7,93.4,77.3c0,23.8-25.2,36.3-50.2,36.3c-6.4,0-12.7-0.9-18.8-2.7
			c-4.2-1.3-8.6-2-13-2.1c-3,0-4.3,1.6-5.7,3.5l-1.9,2.6L3.1,112.4z"/>
		<path id="Path_205" class="st3" d="M83.9,40.7h-0.4C81.1,23.4,72.3,3.2,46.7,3.2c-12.8,0-21.9,5.1-21.9,15.3
			C24.8,46,92,39.2,92,77.6c0,22-22.9,35.1-49,35.1c-15.9,0-20-4.8-31.7-4.8c-4,0-5.5,2.5-7.1,4.5L1.7,67.9h0.4
			c2.5,18.6,10.6,44.3,41.8,44.3c14.9,0,25.2-5.9,25.2-16.6c0-27.2-68-23.1-68-60.3c0-20.9,21.4-32.7,44-32.7
			c14.5,0,21.8,4.9,29.7,4.9c4,0,5.5-2.5,7.1-4.6L83.9,40.7z"/>
		<path id="Path_206" class="st3" d="M173.7,112.7v-2.4l1.2-0.3h9V46.6h-10.2v-2.4l1.2-0.3h63.2l2.6,25.2h-2.4l-0.4-1.1
			c-1.5-13.3-6-21.5-23.9-21.5h-8.3v29.6c7.7-0.2,16.5-3,17.1-13.9l0.1-1.1h2.4l0.2,1.3l-1.7,31.7h-2.3l-0.2-1.2
			c0.4-3.5-0.7-6.9-3-9.6c-2.6-2.7-6.9-4.2-12.5-4.4V110h4.5c18.6,0,27.9-8.1,31.2-27l0.2-1h2.4v1.4l-4.7,29.2L173.7,112.7z"/>
		<path id="Path_208" class="st3" d="M326.3,112.7v-2.4l1.2-0.3h9V46.6h-10.2v-2.4l1.2-0.3h41.2v2.4l-1.2,0.3h-9V110h10.2v2.4
			l-1.2,0.3H326.3z"/>
		<path id="Path_210" class="st3" d="M448.4,112.7v-2.4l1.2-0.3h9V84.6l-21.9-38h-8.6v-2.4l1.2-0.3h42.6v2.4l-1.2,0.3h-8.8L479,80.3
			l18.7-33.7h-11.8v-2.4l1.2-0.3h25.1v2.4l-1.2,0.3h-10.2l-20.5,37.1l0.1,26.3h10.2v2.4l-1.2,0.3H448.4z"/>
		<path id="Path_212" class="st3" d="M649.8,114.2c-8.8,0-15.7-2.8-20.8-16.3c-0.5-1.2-0.9-2.7-1.4-4.3c-1.8-6.4-4.1-14.4-11.8-14.4
			h-0.7v30.9h8.4v2.4l-1.2,0.3h-39.4v-2.4l1.2-0.3h9V46.7h-10.2v-2.4l1.2-0.3h28.8c14.7,0,39.2,0,39.2,17
			c0,10.5-11.5,14.9-21.9,16.8c12.5,2.4,18.2,8.8,22.4,17.5l2.1,4.5c4.4,9.5,4.8,10.2,8.7,10.2l2.5-0.1v2.3l-1,0.4l-2.2,0.3
			C658.5,113.6,654.2,114,649.8,114.2z M616.8,76.6c7.9,0,12.2-2.3,12.2-14.6c0-11.2-3.3-15.3-12.2-15.3h-1.7v29.9H616.8z"/>
		<path id="Path_213" class="st3" d="M583.6,111.3h10.2V45.5h-10.2v-0.3h28.8c15.9,0,38,0.4,38,15.8c0,13.5-21.4,16.4-32.7,16.9V78
			c19.5,0,27.7,6.2,33.3,17.9c6.8,14.3,6.5,15.6,13.2,15.4v0.3c-18.1,2.2-27.8,4.3-34.8-14.1c-2.4-6.2-3.7-19.4-14.2-19.4h-1.9v33.2
			h8.4v0.3h-38.2L583.6,111.3z M616.2,77.8c9.3,0,13.4-3.7,13.4-15.8c0-10.9-3.1-16.5-13.4-16.5h-2.8v32.3H616.2z"/>
		<path id="Path_214" class="st3" d="M791.3,112.7v-2.4l1.2-0.3h9.6L794,92.1h-23.1l-8,17.9h11.2v2.4l-1.2,0.3h-23v-2.4l1.2-0.3h8.9
			l31.7-70.9l34,70.9h9.9v2.4l-1.2,0.3H791.3z M792.8,89.5l-10.4-23.1l-10.3,23.1H792.8z"/>
		<path id="Path_215" class="st3" d="M794.7,91h-24.6l-9.1,20.3h11.9v0.3H751v-0.3h9.7l31-69.3l33.3,69.3h9.5v0.3h-42v-0.3H804
			L794.7,91z M770.2,90.7h24.4l-12.3-27.1L770.2,90.7z"/>
	</g>
</g>
</svg>
